<svg width="395" height="500" viewBox="0 0 395 500" fill="none" xmlns="http://www.w3.org/2000/svg">
<g clip-path="url(#clip0_11394_191939)">
<path d="M-0.117165 368.771V498.623H90.9182V374.39C90.9182 362.303 95.7138 350.711 104.25 342.164C112.786 333.618 124.364 328.816 136.436 328.816H229.778C273.323 328.803 315.08 311.476 345.867 280.644C376.654 249.812 393.951 208.001 393.954 164.403C393.954 120.799 376.655 78.9806 345.862 48.1455C315.069 17.3105 273.304 -0.0158387 229.753 -0.0224609L-0.117165 -0.0224609V162.293H90.9182V85.7675H223.618C244.222 85.7675 263.983 93.9608 278.554 108.546C293.126 123.13 301.316 142.912 301.322 163.542C301.322 184.175 293.136 203.964 278.563 218.554C263.991 233.144 244.226 241.341 223.618 241.341H127.145C110.43 241.333 93.8762 244.623 78.4315 251.024C62.9868 257.426 48.9537 266.812 37.1345 278.647C25.3153 290.481 15.9417 304.533 9.54984 319.997C3.15794 335.461 -0.127 352.035 -0.117165 368.771Z" fill="url(#paint0_radial_11394_191939)"/>
<path d="M136.411 328.816C100.202 328.82 65.4779 343.223 39.8746 368.857C14.2714 394.492 -0.113881 429.258 -0.117188 465.511L-0.117187 498.623H90.9182V374.39C90.9182 362.307 95.7104 350.719 104.241 342.173C112.772 333.627 124.343 328.823 136.411 328.816Z" fill="url(#paint1_linear_11394_191939)"/>
</g>
<defs>
<radialGradient id="paint0_radial_11394_191939" cx="0" cy="0" r="1" gradientUnits="userSpaceOnUse" gradientTransform="translate(395.388 -69.2563) scale(501.281 501.892)">
<stop stop-color="#A995FF"/>
<stop offset="1" stop-color="#6652F5"/>
</radialGradient>
<linearGradient id="paint1_linear_11394_191939" x1="68.1469" y1="474.064" x2="68.1469" y2="283.256" gradientUnits="userSpaceOnUse">
<stop stop-color="#6D4BFD"/>
<stop offset="1" stop-color="#1C0554"/>
</linearGradient>
<clipPath id="clip0_11394_191939">
<rect width="394" height="500" fill="white" transform="translate(0.726562)"/>
</clipPath>
</defs>
</svg>
